<mxfile host="app.diagrams.net" modified="2022-12-21T18:04:32.749Z" agent="5.0 (Windows NT 10.0; Win64; x64) AppleWebKit/537.36 (KHTML, like Gecko) Chrome/108.0.0.0 Safari/537.36 Edg/108.0.1462.54" etag="azVaJ_HAQBSrDdQzcoS6" version="20.7.4" type="github">
  <diagram id="VrcHo0is1Yf8Ic5ensMK" name="Страница 1">
    <mxGraphModel dx="1050" dy="581" grid="1" gridSize="10" guides="1" tooltips="1" connect="1" arrows="1" fold="1" page="1" pageScale="1" pageWidth="827" pageHeight="1169" math="0" shadow="0">
      <root>
        <mxCell id="0" />
        <mxCell id="1" parent="0" />
        <mxCell id="WDCF_A7ImxJQsFsin7ZQ-1" value="Пользователь" style="swimlane;whiteSpace=wrap;html=1;" parent="1" vertex="1">
          <mxGeometry x="210" y="40" width="170" height="520" as="geometry" />
        </mxCell>
        <mxCell id="BZTm6CcyMh4_-YShRo9q-6" value="выбор публикации" style="rounded=0;whiteSpace=wrap;html=1;" vertex="1" parent="WDCF_A7ImxJQsFsin7ZQ-1">
          <mxGeometry x="40" y="140" width="120" height="60" as="geometry" />
        </mxCell>
        <mxCell id="WDCF_A7ImxJQsFsin7ZQ-2" value="Сайт" style="swimlane;whiteSpace=wrap;html=1;" parent="1" vertex="1">
          <mxGeometry x="400" y="360" width="400" height="200" as="geometry" />
        </mxCell>
        <mxCell id="WDCF_A7ImxJQsFsin7ZQ-17" value="страница вывода информации" style="rounded=0;whiteSpace=wrap;html=1;" parent="WDCF_A7ImxJQsFsin7ZQ-2" vertex="1">
          <mxGeometry x="250" y="120" width="120" height="60" as="geometry" />
        </mxCell>
        <mxCell id="BZTm6CcyMh4_-YShRo9q-5" style="edgeStyle=orthogonalEdgeStyle;rounded=0;orthogonalLoop=1;jettySize=auto;html=1;exitX=1;exitY=0.5;exitDx=0;exitDy=0;entryX=0;entryY=0.5;entryDx=0;entryDy=0;" edge="1" parent="WDCF_A7ImxJQsFsin7ZQ-2" source="WDCF_A7ImxJQsFsin7ZQ-18" target="WDCF_A7ImxJQsFsin7ZQ-17">
          <mxGeometry relative="1" as="geometry" />
        </mxCell>
        <mxCell id="WDCF_A7ImxJQsFsin7ZQ-18" value="страница ввода информации" style="rounded=0;whiteSpace=wrap;html=1;" parent="WDCF_A7ImxJQsFsin7ZQ-2" vertex="1">
          <mxGeometry x="14" y="120" width="120" height="60" as="geometry" />
        </mxCell>
        <mxCell id="BZTm6CcyMh4_-YShRo9q-4" style="edgeStyle=orthogonalEdgeStyle;rounded=0;orthogonalLoop=1;jettySize=auto;html=1;exitX=1;exitY=0.5;exitDx=0;exitDy=0;entryX=0.5;entryY=0;entryDx=0;entryDy=0;" edge="1" parent="WDCF_A7ImxJQsFsin7ZQ-2" source="BZTm6CcyMh4_-YShRo9q-2" target="WDCF_A7ImxJQsFsin7ZQ-17">
          <mxGeometry relative="1" as="geometry" />
        </mxCell>
        <mxCell id="BZTm6CcyMh4_-YShRo9q-2" value="анализ" style="rounded=0;whiteSpace=wrap;html=1;" vertex="1" parent="WDCF_A7ImxJQsFsin7ZQ-2">
          <mxGeometry x="14" y="50" width="120" height="60" as="geometry" />
        </mxCell>
        <mxCell id="WDCF_A7ImxJQsFsin7ZQ-3" value="ВКонтакте" style="swimlane;whiteSpace=wrap;html=1;" parent="1" vertex="1">
          <mxGeometry x="400" y="40" width="400" height="280" as="geometry" />
        </mxCell>
        <mxCell id="WDCF_A7ImxJQsFsin7ZQ-14" style="edgeStyle=orthogonalEdgeStyle;rounded=0;orthogonalLoop=1;jettySize=auto;html=1;exitX=0.5;exitY=1;exitDx=0;exitDy=0;entryX=0.5;entryY=0;entryDx=0;entryDy=0;" parent="WDCF_A7ImxJQsFsin7ZQ-3" source="WDCF_A7ImxJQsFsin7ZQ-5" target="WDCF_A7ImxJQsFsin7ZQ-8" edge="1">
          <mxGeometry relative="1" as="geometry" />
        </mxCell>
        <mxCell id="BZTm6CcyMh4_-YShRo9q-10" style="edgeStyle=orthogonalEdgeStyle;rounded=0;orthogonalLoop=1;jettySize=auto;html=1;exitX=0.5;exitY=0;exitDx=0;exitDy=0;" edge="1" parent="WDCF_A7ImxJQsFsin7ZQ-3" source="WDCF_A7ImxJQsFsin7ZQ-5" target="BZTm6CcyMh4_-YShRo9q-9">
          <mxGeometry relative="1" as="geometry" />
        </mxCell>
        <mxCell id="WDCF_A7ImxJQsFsin7ZQ-5" value="публикация" style="rounded=0;whiteSpace=wrap;html=1;" parent="WDCF_A7ImxJQsFsin7ZQ-3" vertex="1">
          <mxGeometry x="14" y="120" width="120" height="60" as="geometry" />
        </mxCell>
        <mxCell id="BZTm6CcyMh4_-YShRo9q-12" style="edgeStyle=orthogonalEdgeStyle;rounded=0;orthogonalLoop=1;jettySize=auto;html=1;exitX=0.5;exitY=0;exitDx=0;exitDy=0;entryX=1;entryY=0.5;entryDx=0;entryDy=0;" edge="1" parent="WDCF_A7ImxJQsFsin7ZQ-3" source="WDCF_A7ImxJQsFsin7ZQ-6" target="WDCF_A7ImxJQsFsin7ZQ-5">
          <mxGeometry relative="1" as="geometry">
            <Array as="points">
              <mxPoint x="345" y="80" />
              <mxPoint x="150" y="80" />
              <mxPoint x="150" y="150" />
            </Array>
          </mxGeometry>
        </mxCell>
        <mxCell id="WDCF_A7ImxJQsFsin7ZQ-6" value="контент" style="swimlane;whiteSpace=wrap;html=1;" parent="WDCF_A7ImxJQsFsin7ZQ-3" vertex="1">
          <mxGeometry x="300" y="140" width="90" height="130" as="geometry" />
        </mxCell>
        <mxCell id="WDCF_A7ImxJQsFsin7ZQ-7" value="&lt;b&gt;Текст&lt;br&gt;&lt;br&gt;Фото&lt;br&gt;&lt;br&gt;Видео&lt;/b&gt;" style="text;html=1;align=left;verticalAlign=middle;resizable=0;points=[];autosize=1;strokeColor=none;fillColor=none;" parent="WDCF_A7ImxJQsFsin7ZQ-6" vertex="1">
          <mxGeometry x="10" y="30" width="60" height="90" as="geometry" />
        </mxCell>
        <mxCell id="WDCF_A7ImxJQsFsin7ZQ-8" value="статистика" style="rounded=0;whiteSpace=wrap;html=1;" parent="WDCF_A7ImxJQsFsin7ZQ-3" vertex="1">
          <mxGeometry x="13.5" y="210" width="120" height="60" as="geometry" />
        </mxCell>
        <mxCell id="BZTm6CcyMh4_-YShRo9q-13" style="edgeStyle=orthogonalEdgeStyle;rounded=0;orthogonalLoop=1;jettySize=auto;html=1;exitX=0;exitY=0.75;exitDx=0;exitDy=0;entryX=1;entryY=0.25;entryDx=0;entryDy=0;" edge="1" parent="WDCF_A7ImxJQsFsin7ZQ-3" source="WDCF_A7ImxJQsFsin7ZQ-10" target="WDCF_A7ImxJQsFsin7ZQ-8">
          <mxGeometry relative="1" as="geometry" />
        </mxCell>
        <mxCell id="WDCF_A7ImxJQsFsin7ZQ-10" value="данные" style="swimlane;whiteSpace=wrap;html=1;" parent="WDCF_A7ImxJQsFsin7ZQ-3" vertex="1">
          <mxGeometry x="160" y="90" width="130" height="180" as="geometry" />
        </mxCell>
        <mxCell id="WDCF_A7ImxJQsFsin7ZQ-11" value="&lt;div style=&quot;text-align: left;&quot;&gt;&lt;b style=&quot;background-color: initial;&quot;&gt;Лайки&lt;/b&gt;&lt;/div&gt;&lt;div style=&quot;text-align: left;&quot;&gt;&lt;b&gt;&lt;br&gt;&lt;/b&gt;&lt;/div&gt;&lt;b&gt;Комментарии&lt;/b&gt;&lt;br&gt;&lt;br&gt;&lt;div style=&quot;text-align: left;&quot;&gt;&lt;b style=&quot;background-color: initial;&quot;&gt;Репосты&lt;/b&gt;&lt;/div&gt;&lt;br&gt;&lt;div style=&quot;text-align: left;&quot;&gt;&lt;b style=&quot;background-color: initial;&quot;&gt;Просмотры&lt;/b&gt;&lt;/div&gt;&lt;div style=&quot;text-align: left;&quot;&gt;&lt;b style=&quot;background-color: initial;&quot;&gt;&lt;br&gt;&lt;/b&gt;&lt;/div&gt;&lt;div style=&quot;text-align: left;&quot;&gt;&lt;b style=&quot;background-color: initial;&quot;&gt;Дата&lt;/b&gt;&lt;/div&gt;" style="text;html=1;align=center;verticalAlign=middle;resizable=0;points=[];autosize=1;strokeColor=none;fillColor=none;" parent="WDCF_A7ImxJQsFsin7ZQ-10" vertex="1">
          <mxGeometry x="10" y="30" width="100" height="140" as="geometry" />
        </mxCell>
        <mxCell id="BZTm6CcyMh4_-YShRo9q-9" value="ссылка на публикацию" style="rounded=0;whiteSpace=wrap;html=1;" vertex="1" parent="WDCF_A7ImxJQsFsin7ZQ-3">
          <mxGeometry x="14" y="30" width="120" height="60" as="geometry" />
        </mxCell>
        <mxCell id="BZTm6CcyMh4_-YShRo9q-3" style="edgeStyle=orthogonalEdgeStyle;rounded=0;orthogonalLoop=1;jettySize=auto;html=1;exitX=0.5;exitY=1;exitDx=0;exitDy=0;entryX=0.5;entryY=0;entryDx=0;entryDy=0;" edge="1" parent="1" source="WDCF_A7ImxJQsFsin7ZQ-8" target="BZTm6CcyMh4_-YShRo9q-2">
          <mxGeometry relative="1" as="geometry" />
        </mxCell>
        <mxCell id="BZTm6CcyMh4_-YShRo9q-8" style="edgeStyle=orthogonalEdgeStyle;rounded=0;orthogonalLoop=1;jettySize=auto;html=1;exitX=0.5;exitY=1;exitDx=0;exitDy=0;entryX=0;entryY=0.5;entryDx=0;entryDy=0;" edge="1" parent="1" source="BZTm6CcyMh4_-YShRo9q-6" target="WDCF_A7ImxJQsFsin7ZQ-18">
          <mxGeometry relative="1" as="geometry" />
        </mxCell>
        <mxCell id="BZTm6CcyMh4_-YShRo9q-11" style="edgeStyle=orthogonalEdgeStyle;rounded=0;orthogonalLoop=1;jettySize=auto;html=1;exitX=0;exitY=0.5;exitDx=0;exitDy=0;entryX=0.5;entryY=0;entryDx=0;entryDy=0;" edge="1" parent="1" source="BZTm6CcyMh4_-YShRo9q-9" target="BZTm6CcyMh4_-YShRo9q-6">
          <mxGeometry relative="1" as="geometry" />
        </mxCell>
      </root>
    </mxGraphModel>
  </diagram>
</mxfile>
